<?xml version="1.0" encoding="utf-8"?>
<!-- Generator: Adobe Illustrator 17.0.0, SVG Export Plug-In . SVG Version: 6.00 Build 0)  -->
<!DOCTYPE svg PUBLIC "-//W3C//DTD SVG 1.1//EN" "http://www.w3.org/Graphics/SVG/1.1/DTD/svg11.dtd">
<svg version="1.1" id="Layer_1" xmlns="http://www.w3.org/2000/svg" xmlns:xlink="http://www.w3.org/1999/xlink" x="0px" y="0px"
	 width="120.55px" height="37.325px" viewBox="4.825 46.5 120.55 37.325" enable-background="new 4.825 46.5 120.55 37.325"
	 xml:space="preserve">
<circle fill="#A31E22" cx="65.375" cy="65.25" r="3.4"/>
<path fill="#4D4E4E" d="M65.4,56.1c-5.1,0-9.225,4.1-9.225,9.125c0,5.05,4.125,9.125,9.225,9.125s9.225-4.1,9.225-9.125
	C74.625,60.175,70.5,56.1,65.4,56.1z M65.4,70.95c-3.2,0-5.775-2.55-5.775-5.725c0-3.15,2.6-5.725,5.775-5.725
	c3.2,0,5.775,2.55,5.775,5.725C71.175,68.375,68.6,70.95,65.4,70.95z"/>
<polygon fill="#A61F23" points="4.825,60.4 7.9,60.4 10.45,67.7 11.025,67.7 13.275,60.4 16.775,60.4 19,67.7 19.575,67.7 
	22.15,60.4 25.4,60.4 21.5,70.075 17.05,70.075 14.975,62.9 13.075,70.075 8.5,70.075 "/>
<rect x="25.875" y="60.4" fill="#A61F23" width="3.1" height="9.675"/>
<path fill="#A61F23" d="M30.275,60.4H40.8c0,0,1.6,0.075,1.6,1.95c0,1.875,0,2.35,0,2.35s-0.025,1.5-1.75,1.55l0.025,0.1
	c0,0,1.4,0.025,1.55,0.9L42.2,70.025l-2.825,0.025l-0.025-1.875c0,0-0.075-0.375-0.575-0.575h-5.55v2.475h-2.95v-4.95l8.55,0.05
	c0,0,0.55,0,0.625-0.625c0-0.65,0-1.3,0-1.3s0.05-0.45-0.575-0.45c-0.625-0.025-8.6-0.025-8.6-0.025S30.275,60.4,30.275,60.4z"/>
<polygon fill="#A61F23" points="43.4,60.4 54.2,60.4 54.2,62.65 46.275,62.65 46.275,64.15 53.775,64.075 53.775,66.2 46.35,66.2 
	46.35,67.8 54.225,67.8 54.225,70.1 43.4,70.075 "/>
<path fill="#A61F23" d="M87.875,63.4v-1.325c0,0-0.1-1.45-1.575-1.65c0,0-0.3-0.15-1.575-0.15S78.4,60.35,78.4,60.35
	s-1.8,0.05-1.85,2.15v1.6c0,0-0.225,1.675,1.85,1.975c0.575,0.075,1.15,0.075,1.725,0.1c0.875,0.025,1.75,0.075,2.625,0.1
	c0.575,0.025,1.175,0.05,1.75,0.075c0.125,0,0.225,0.025,0.35,0.05c0.1,0.025,0.175,0.05,0.275,0.075c0.125,0.05,0.25,0.1,0.3,0.2
	c0.025,0.075,0.025,0.15,0.025,0.225c0,0.225-0.025,0.45-0.025,0.675c0,0.075,0,0.125-0.05,0.2c-0.125,0.2-0.475,0.2-0.675,0.2
	c-0.775,0-4.95-0.05-4.95-0.05s-0.55-0.025-0.575-0.6c-0.025-0.575,0-0.5,0-0.5h-2.7v1.625c0,0,0.05,1.625,2.675,1.65
	c2.6,0.025,7.4-0.075,7.4-0.075s1.275-0.15,1.625-1.775v-2.4c0,0-0.125-1.325-1.75-1.625c0,0-0.75-0.125-2.4-0.15
	s-3.7-0.125-4.1-0.175s-0.625-0.3-0.575-0.975c0,0-0.075-0.525,0.925-0.525s4.05,0.025,4.05,0.025S85.05,62.4,85.05,62.95
	c0,0.4,0,0.45,0,0.45L87.875,63.4z"/>
<path fill="#A61F23" d="M98.075,60.325h-4.55l-5.2,9.8h3.425l0.8-1.7h6.475l0.825,1.7h3.4L98.075,60.325z M93.6,66.25l1.825-3.675
	h0.65l1.875,3.675H93.6z"/>
<polygon fill="#A61F23" points="103.725,70.1 103.725,60.325 113.925,60.325 113.925,62.65 106.625,62.65 106.65,64.5 
	113.525,64.45 113.525,66.7 106.6,66.675 106.625,70.1 "/>
<polygon fill="#A61F23" points="125.375,70.075 114.625,70.075 114.6,64 124.925,64 124.925,66.2 117.475,66.2 117.475,67.775 
	125.375,67.775 "/>
<polygon fill="#A61F23" points="114.6,62.625 114.6,60.325 125.375,60.325 125.375,62.625 "/>
<path fill="#4D4E4E" d="M48.525,58.425v-5.5c0,0,8.8-0.45,16.8-6.05c0,0,8.45,5.75,16.75,6.1v5.475H79.5l0.025-3.25
	c0,0-7.3-0.95-14.2-5.3c0,0-5.825,3.975-14.125,5.275l0.025,3.275h-2.7V58.425z"/>
<path fill="#4D4E4E" d="M51.625,72.125h3c0,0,3.525,6.05,10.65,8.6c0,0,6.425-1.425,10.75-8.7H79.1c0,0-2.875,7.425-13.75,11.8
	C65.375,83.8,55.55,80.125,51.625,72.125z"/>
<path fill="#FFFFFF" d="M66.625,64.575c0-0.675-0.55-1.225-1.225-1.225c-0.675,0-1.225,0.55-1.225,1.225
	c0,0.475,0.275,0.9,0.675,1.1l0,0v1.5h1.05V65.7C66.325,65.525,66.625,65.075,66.625,64.575z"/>
<rect x="65.05" y="56.6" fill="#FFFFFF" width="0.6" height="2.225"/>
<rect x="70.372" y="58.819" transform="matrix(-0.7071 -0.7071 0.7071 -0.7071 78.2659 152.2825)" fill="#FFFFFF" width="0.6" height="2.225"/>
<rect x="71.805" y="64.917" fill="#FFFFFF" width="2.225" height="0.6"/>
<rect x="70.385" y="69.447" transform="matrix(0.7071 -0.7071 0.7071 0.7071 -29.1897 70.6483)" fill="#FFFFFF" width="0.6" height="2.225"/>
<rect x="65.083" y="71.634" fill="#FFFFFF" width="0.6" height="2.225"/>
<rect x="59.799" y="69.421" transform="matrix(0.7071 0.7071 -0.7071 0.7071 67.4771 -21.8375)" fill="#FFFFFF" width="0.6" height="2.225"/>
<rect x="56.763" y="64.906" fill="#FFFFFF" width="2.225" height="0.6"/>
<rect x="59.744" y="58.797" transform="matrix(-0.7071 0.7071 -0.7071 -0.7071 144.8637 59.815)" fill="#FFFFFF" width="0.6" height="2.225"/>
</svg>
